<svg id="Слой_1" data-name="Слой 1" xmlns="http://www.w3.org/2000/svg" viewBox="0 0 174.29272 174.29279"><title>button LCS black</title><path d="M275.28326,281.22339q-5.75226-6.304-5.75323-18.09131V260.5658H258.82147v2.05078q0,11.673-5.70343,17.85858a18.68768,18.68768,0,0,1-9.92609,5.45837l.00079,8.15594h43.12518v-7.0899A19.17706,19.17706,0,0,1,275.28326,281.22339Z" transform="translate(-162.85364 -162.85358)"/><path d="M316.90594,162.85358H183.09406a20.24044,20.24044,0,0,0-20.24042,20.24048V316.90594a20.24043,20.24043,0,0,0,20.24042,20.24042H316.90594a20.24043,20.24043,0,0,0,20.24042-20.24042V183.09406A20.24044,20.24044,0,0,0,316.90594,162.85358Zm.26129,148.87421H182.83276V188.27216h19.4007V294.08948h25.19891v-8.69843a18.00872,18.00872,0,0,1-7.98431-4.97827q-5.70245-6.24792-5.70129-17.93341V212.45776q0-11.67911,5.70129-17.93335,5.70236-6.24811,16.836-6.25226,11.13043,0,16.834,6.25226,5.69925,6.25424,5.70343,17.93335v9.345H244.52954V211.4975q0-5.22528-2.13037-7.3537a8.69939,8.69939,0,0,0-11.407.00409q-2.13235,2.13867-2.13037,7.36627v52.05023q0,5.22537,2.13037,7.29559a8.91218,8.91218,0,0,0,11.407.00409q2.12924-2.06387,2.13037-7.28308V247.73358h39.419v16.43353q0,5.30649,2.14722,7.4079a8.9675,8.9675,0,0,0,11.50659.01245q2.14828-2.08282,2.14929-7.358a17.26105,17.26105,0,0,0-2.21777-8.82123,36.70743,36.70743,0,0,0-5.54553-7.21655q-3.32666-3.40457-7.13971-6.80511a67.89728,67.89728,0,0,1-7.13971-7.42859,37.87572,37.87572,0,0,1-5.54535-9.16223,30.32732,30.32732,0,0,1-2.2179-12.08429q0-11.79776,5.61615-18.12061,5.612-6.3165,16.84222-6.31873,11.23022,0,16.84442,6.31042,5.61493,6.31036,5.614,18.09131v3.74139H300.44586v-4.714q0-5.26291-2.01208-7.41632a8.40732,8.40732,0,0,0-11.22815,0q-2.01086,2.15149-2.00989,7.41632a17.16772,17.16772,0,0,0,2.21771,8.80457,36.59511,36.59511,0,0,0,5.54559,7.20831q3.32666,3.39825,7.13971,6.7926a68.3658,68.3658,0,0,1,7.13971,7.41614,37.86253,37.86253,0,0,1,5.54541,9.1496,30.26818,30.26818,0,0,1,2.21777,12.05957q0,11.78522-5.75317,18.09131a17.92661,17.92661,0,0,1-7.17,4.7475v8.11859h15.08881Z" transform="translate(-162.85364 -162.85358)"/></svg>