<svg id="Слой_1" data-name="Слой 1" xmlns="http://www.w3.org/2000/svg" viewBox="0 0 231.47124 213"><title>icon LCS line</title><path d="M364.0378,356.5H135.9622a1.69737,1.69737,0,0,1-1.69782-1.69782V145.19782A1.6979,1.6979,0,0,1,135.9622,143.5h32.93918a1.6979,1.6979,0,0,1,1.69782,1.69782V323.15875h39.38724V311.30386a31.98581,31.98581,0,0,1-13.1125-8.52391c-6.71666-7.35832-10.12308-17.98793-10.12308-31.592V186.2605c0-13.59664,3.40559-24.22542,10.12308-31.592C203.63868,147.25709,213.6772,143.5,226.71261,143.5c13.0296,0,23.06729,3.75709,29.83452,11.16764,6.72081,7.37407,10.12805,18.00368,10.12805,31.59286v15.86565a1.6979,1.6979,0,0,1-1.69782,1.69782H240.71215a1.6979,1.6979,0,0,1-1.69782-1.69782V184.62983c0-5.41511-1.04953-9.212-3.12041-11.28536-2.10238-2.09575-4.87791-3.11543-8.48246-3.11543-3.60869,0-6.3834,1.02134-8.48246,3.12206-2.07,2.07668-3.12041,5.881-3.12041,11.30691V273.03c0,5.41843,1.0429,9.17552,3.09968,11.16681,2.104,2.03937,4.88455,3.02921,8.50319,3.02921,3.6145,0,6.39584-.98984,8.50485-3.02424,2.05512-1.99129,3.098-5.74174,3.098-11.14359V246.15255a1.6979,1.6979,0,0,1,1.69782-1.69782h66.92623a1.6979,1.6979,0,0,1,1.69782,1.69782V274.053c0,5.50465,1.05533,9.32806,3.13533,11.36411,2.11979,2.06756,4.92683,3.07232,8.58111,3.07232,3.6518,0,6.4605-.99979,8.58692-3.0574,2.07751-2.0145,3.132-5.80807,3.132-11.27292a27.77018,27.77018,0,0,0-3.53657-14.12473,60.95774,60.95774,0,0,0-9.15977-11.91706c-3.68745-3.7745-7.738-7.63521-12.03976-11.47437a117.55157,117.55157,0,0,1-12.30007-12.7983,66.29554,66.29554,0,0,1-9.66463-15.96348,53.40081,53.40081,0,0,1-3.90465-21.1904c0-13.72514,3.35253-24.45589,9.96391-31.89379,6.66112-7.49594,16.70876-11.297,29.86437-11.297,13.15644,0,23.20491,3.79605,29.86686,11.28287,6.60972,7.428,9.96142,18.14212,9.96142,31.84405v6.35273a1.6979,1.6979,0,0,1-1.69782,1.69782H335.64825a1.6979,1.6979,0,0,1-1.69782-1.69782v-8.00412c0-5.48475-.99564-9.33137-2.95875-11.43209-1.9631-2.09243-4.67563-3.11046-8.29179-3.11046-3.61947,0-6.33117,1.018-8.29179,3.11212-1.96062,2.09657-2.9546,5.94237-2.9546,11.43043a27.60892,27.60892,0,0,0,3.53491,14.09405,60.75,60.75,0,0,0,9.16225,11.90546c3.7604,3.84165,7.81013,7.6949,12.03644,11.45116a118.47634,118.47634,0,0,1,12.3009,12.77675,66.30258,66.30258,0,0,1,9.66546,15.94275,53.29714,53.29714,0,0,1,3.90548,21.14978c0,13.71022-3.43543,24.431-10.21178,31.86063a32.00516,32.00516,0,0,1-11.72971,8.0779v10.92473H364.0378a1.69737,1.69737,0,0,1,1.69782,1.69782v29.94561A1.69737,1.69737,0,0,1,364.0378,356.5ZM137.66,353.10436H362.34v-26.55H338.41964a1.69737,1.69737,0,0,1-1.69782-1.69782V311.07174a1.69865,1.69865,0,0,1,1.11-1.59336,28.90407,28.90407,0,0,0,11.5067-7.61034c6.18775-6.78464,9.32474-16.73446,9.32474-29.57256a49.964,49.964,0,0,0-3.62693-19.80347,62.90435,62.90435,0,0,0-9.16391-15.12369,115.05244,115.05244,0,0,0-11.94359-12.40618c-4.28268-3.80683-8.38961-7.714-12.20556-11.61116a64.1966,64.1966,0,0,1-9.67044-12.57364,30.96237,30.96237,0,0,1-3.995-15.80182c0-6.46713,1.2659-10.96453,3.87066-13.75084,2.60144-2.77885,6.22506-4.18735,10.77137-4.18735,4.54216,0,8.16578,1.40849,10.77054,4.18569,2.6089,2.79129,3.87564,7.28868,3.87564,13.7525v6.3063h21.081v-4.65491c0-12.84473-3.06237-22.79952-9.10256-29.58748-5.98962-6.73076-15.185-10.1438-27.33008-10.1438-12.14338,0-21.33714,3.41719-27.32593,10.15707-6.04268,6.79791-9.10671,16.76928-9.10671,29.638a50.07593,50.07593,0,0,0,3.6261,19.84492,62.9476,62.9476,0,0,0,9.16557,15.1469A114.12109,114.12109,0,0,0,310.297,234.10948c4.359,3.89139,8.46588,7.80516,12.20639,11.63437a64.32534,64.32534,0,0,1,9.668,12.58442,31.12363,31.12363,0,0,1,3.99584,15.83083c0,6.50941-1.36207,10.99437-4.165,13.71188-2.75315,2.66445-6.43646,4.01408-10.94961,4.01408-4.51978,0-8.20557-1.35958-10.95375-4.039-2.79875-2.73906-4.15833-7.25055-4.15833-13.79312V247.85037H242.41v25.2078c0,6.44475-1.35212,10.88826-4.13346,13.58421a15.04938,15.04938,0,0,1-10.865,3.97926c-4.48082,0-8.13593-1.34134-10.865-3.9859-2.78134-2.691-4.13346-7.14278-4.13346-13.60576V184.658c0-6.44641,1.34549-10.92971,4.11273-13.70524a16.45349,16.45349,0,0,1,21.76823-.00995c2.77056,2.77388,4.11605,7.25055,4.11605,13.687v15.7985h20.86958V186.2605c0-12.71706-3.1088-22.57651-9.241-29.304-6.09573-6.67521-15.29032-10.0609-27.32593-10.0609-12.04142,0-21.23683,3.38486-27.33008,10.06173-6.12889,6.72081-9.236,16.58026-9.236,29.30313v84.92742c0,12.73033,3.10714,22.58895,9.236,29.304a29.04493,29.04493,0,0,0,12.82235,7.98008,1.69629,1.69629,0,0,1,1.178,1.61658v14.768a1.69808,1.69808,0,0,1-1.69865,1.69782H168.90138a1.69737,1.69737,0,0,1-1.69782-1.69782V146.89564H137.66Zm174.00156-26.55H238.44231a1.69737,1.69737,0,0,1-1.69782-1.69782V311.19775a1.69779,1.69779,0,0,1,1.31316-1.84373,30.20432,30.20432,0,0,0,15.98752-8.76267c6.12724-6.65034,9.23438-16.4642,9.23438-29.16966v-3.48351a1.69737,1.69737,0,0,1,1.69782-1.69782h18.18109a1.69737,1.69737,0,0,1,1.69782,1.69782v4.35729c0,12.84141,3.137,22.79123,9.32474,29.57256,4.34734,4.76848,10.33365,7.8922,17.79145,9.28163a1.69941,1.69941,0,0,1,1.38694,1.66963v12.03727A1.69737,1.69737,0,0,1,311.66158,326.55439Zm-71.52145-3.39564h69.82363v-8.95c-7.56309-1.65139-13.71188-5.02879-18.29135-10.05261-6.77635-7.4263-10.21178-18.14544-10.21178-31.86063V269.636H266.67518v1.78569c0,13.58587-3.4089,24.174-10.133,31.471a33.046,33.046,0,0,1-16.402,9.45075Z" transform="translate(-134.26438 -143.5)"/></svg>