<svg id="Слой_1" data-name="Слой 1" xmlns="http://www.w3.org/2000/svg" viewBox="0 0 280.6655 257.93619"><defs><style>.cls-1{fill:#f96a0c;}.cls-2{fill:#67809f;}</style></defs><title>icon LCS color</title><path class="cls-1" d="M381.1745,252.24078a79.10977,79.10977,0,0,0-11.586-19.11629,142.8329,142.8329,0,0,0-14.917-15.49448q-7.97342-7.08744-14.917-14.1918A76.46,76.46,0,0,1,328.168,188.37788a35.869,35.869,0,0,1-4.63344-18.39548q0-10.99579,4.19928-15.4949,4.19511-4.48124,11.72957-4.49012,7.53025,0,11.72935,4.49012,4.20168,4.495,4.20388,15.4949v9.849h30.12065v-7.81692q0-24.62286-11.72935-37.79821Q362.05633,121.032,338.59492,121.0319q-23.45671,0-35.18846,13.20168-11.732,13.1974-11.73395,37.85943,0,14.513,4.63387,25.24777a79.13461,79.13461,0,0,0,11.586,19.14261,141.84892,141.84892,0,0,0,14.917,15.5206q7.96684,7.11314,14.917,14.21792a76.69174,76.69174,0,0,1,11.58623,15.07767,36.0624,36.0624,0,0,1,4.63366,18.43016q0,11.02149-4.49054,15.37309-4.4944,4.35118-12.02018,4.35118-7.53027,0-12.02059-4.3773-4.48815-4.39036-4.48616-15.47735V245.2648H238.57057v33.11q0,10.91745-4.45105,15.2166-4.45554,4.29947-11.91634,4.30814-7.47135,0-11.91634-4.31671-4.45523-4.312-4.451-15.24272V169.59149q0-10.91776,4.451-15.39043,4.44928-4.45554,11.91634-4.45565,7.46477,0,11.91634,4.44708,4.44865,4.45554,4.45105,15.36411v21.5309h29.86011V171.563q0-24.40129-11.91613-37.46831-11.92062-13.05418-35.17133-13.06274-23.26114,0-35.1755,13.06274-11.914,13.067-11.91174,37.46831V276.07325q0,24.41445,11.91174,37.46831,11.914,13.06734,35.1755,13.06274,23.25489,0,35.17133-12.93237,11.90746-12.9238,11.91613-37.312v-4.28474H290.8042v5.36178q0,24.62286,12.02018,37.79821,12.0184,13.18424,35.47971,13.18455,23.46329,0,35.48389-13.18455,12.0112-13.17107,12.02018-37.79821Q385.80816,262.96277,381.1745,252.24078Z" transform="translate(-109.66725 -121.0319)"/><path class="cls-2" d="M358.80767,342.11634V325.15391a59.0828,59.0828,0,0,1-20.50359,3.26579,67.52031,67.52031,0,0,1-12.42488-1.11631v14.813H235.7776V325.07577a65.26876,65.26876,0,0,1-14.43438,1.52853,60.2155,60.2155,0,0,1-18.49389-2.66177v18.1738H150.20119V121.0319H109.66725V378.9681H390.33275V342.11634Z" transform="translate(-109.66725 -121.0319)"/></svg>