<svg id="Слой_1" data-name="Слой 1" xmlns="http://www.w3.org/2000/svg" viewBox="0 0 280.66553 257.93622"><title>icon LCS black</title><path d="M358.80768,342.11633V325.15686a37.453,37.453,0,0,0,14.98029-9.92175q12.01126-13.17105,12.0202-37.79816,0-14.47421-4.63367-25.19617a79.10993,79.10993,0,0,0-11.586-19.11633,142.83158,142.83158,0,0,0-14.917-15.49445q-7.97342-7.08746-14.91705-14.19183a76.45943,76.45943,0,0,1-11.58643-15.0603,35.86909,35.86909,0,0,1-4.63342-18.39551q0-10.99576,4.19928-15.49487,4.19513-4.48123,11.72955-4.49011,7.5303,0,11.72937,4.49011,4.20163,4.49506,4.20386,15.49487v9.849h30.12067v-7.81689q0-24.62292-11.72937-37.79822Q362.0563,121.032,338.59491,121.03186q-23.45673,0-35.18848,13.20172Q291.6745,147.431,291.67249,172.093q0,14.513,4.63391,25.24774a79.13449,79.13449,0,0,0,11.586,19.14264,141.84557,141.84557,0,0,0,14.917,15.52057q7.96683,7.11319,14.917,14.218a76.68963,76.68963,0,0,1,11.58624,15.07764,36.06265,36.06265,0,0,1,4.63367,18.43018q0,11.02148-4.49054,15.37311-4.49442,4.35114-12.0202,4.35114-7.53021,0-12.02057-4.37726-4.48819-4.39041-4.48615-15.47736V245.26477H238.57056v33.11q0,10.91748-4.451,15.21661-4.45551,4.29941-11.91632,4.30811-7.47134,0-11.91632-4.31671-4.45523-4.312-4.451-15.24268V169.59149q0-10.91776,4.451-15.39044,4.44919-4.4556,11.91632-4.45563,7.46475,0,11.91632,4.447,4.44864,4.4556,4.451,15.36414v21.53088h29.86011V171.56293q0-24.40128-11.91614-37.46832-11.92062-13.05414-35.17133-13.06274-23.26108,0-35.17548,13.06274-11.914,13.067-11.91174,37.46832V276.07324q0,24.41446,11.91174,37.46832a37.587,37.587,0,0,0,16.68158,10.45691v18.11786H150.20117V121.03186H109.66724V378.96808H390.33276V342.11633Zm-32.92847,0H235.77759V325.1106q12.84238-2.8949,20.73694-11.43866,11.90753-12.92386,11.91614-37.31207v-4.28473H290.8042V277.437q0,24.62283,12.0202,37.79816,8.59506,9.42883,23.05481,12.10211Z" transform="translate(-109.66724 -121.03186)"/></svg>