<svg id="Слой_1" data-name="Слой 1" xmlns="http://www.w3.org/2000/svg" viewBox="0 0 376 125.45508"><title>logo LCS line</title><polygon points="157.804 30.549 157.804 1.519 168.796 1.519 168.796 26.163 175.003 26.163 175.003 30.549 157.804 30.549"/><polygon points="198.24 1.519 198.24 6.051 192.034 6.051 192.034 13.058 197.822 13.058 197.822 17.609 192.034 17.609 192.034 25.98 198.24 25.98 198.24 30.549 181.041 30.549 181.041 1.519 198.24 1.519"/><path d="M276.69958,211.27387l-1.00121,6.66086H265.03266l5.31463-29.03h16.50764l5.40577,29.03H281.57675l-.98168-6.66086Zm2.07534-16.68991h-.34632l-1.40092,12.86734H280.267Z" transform="translate(-61.5 -187.38574)"/><path d="M316.48118,203.52066l.01823.10806q3.6403.41988,5.2326,2.10268a5.94056,5.94056,0,0,1,1.59231,4.24962v7.95372h-11.029V206.12329H309.1459v11.81144H298.15339v-29.03h16.617a15.12645,15.12645,0,0,1,3.52182.35544,6.85042,6.85042,0,0,1,2.56618,1.1926,4.94355,4.94355,0,0,1,1.63787,2.28365,10.22656,10.22656,0,0,1,.53641,3.54,13.92944,13.92944,0,0,1-.16275,2.26542,6.95878,6.95878,0,0,1-.59239,1.86572,4.43064,4.43064,0,0,1-1.15484,1.50117,6.16265,6.16265,0,0,1-1.89306,1.02855A11.70715,11.70715,0,0,1,316.48118,203.52066Zm-7.33528-1.62095h3.14946V193.2182H309.1459Z" transform="translate(-61.5 -187.38574)"/><polygon points="283.697 30.549 276.327 17.609 276.327 30.549 268.173 30.549 268.173 1.519 277.582 1.519 285.426 15.369 285.426 1.519 293.508 1.519 293.508 30.549 283.697 30.549"/><rect x="300.58257" y="1.51904" width="10.99251" height="29.02995"/><polygon points="334.176 30.549 326.805 17.609 326.805 30.549 318.651 30.549 318.651 1.519 328.061 1.519 335.905 15.369 335.905 1.519 343.986 1.519 343.986 30.549 334.176 30.549"/><path d="M427.289,215.67843q-1.82015,2.96653-6.39005,2.96588a11.948,11.948,0,0,1-3.30179-.43616,8.77405,8.77405,0,0,1-2.7133-1.29285,5.78694,5.78694,0,0,1-1.86442-2.27454,7.44825,7.44825,0,0,1-.67442-3.23929V195.58517a7.37143,7.37143,0,0,1,.41923-2.55706,5.82426,5.82426,0,0,1,1.10146-1.90217,6.22185,6.22185,0,0,1,1.7186-1.32019,11.2379,11.2379,0,0,1,2.07534-.86451,15.84722,15.84722,0,0,1,2.393-.49084c.90356-.12108,1.7186-.2005,2.43989-.237s1.53632-.05468,2.4477-.05468q1.164,0,2.22116.0638,1.05459.06445,2.36437.25519a17.09618,17.09618,0,0,1,2.3852.50907,11.65044,11.65044,0,0,1,2.14825.89185,7.19232,7.19232,0,0,1,1.80192,1.32931,5.84338,5.84338,0,0,1,1.18219,1.88395,6.68718,6.68718,0,0,1,.45569,2.51149v4.51392H426.487V193.2182H423.3388v20.43958H426.487v-5.51513h-1.54674v-4.20405H437.499v13.99614H428.6352Z" transform="translate(-61.5 -187.38574)"/><path d="M232.07586,240.4435H229.235v18.437h2.84086v-6.25613h9.91572v4.02347a6.66057,6.66057,0,0,1-.37688,2.30544,5.47908,5.47908,0,0,1-.97728,1.71673,5.56023,5.56023,0,0,1-1.5192,1.1982,9.37848,9.37848,0,0,1-1.84669.78754,13.98449,13.98449,0,0,1-2.14169.44315q-1.2164.16375-2.19238.21313-.97663.05068-2.208.04938-1.13258,0-2.06892-.04029-.93569-.04094-2.15859-.20533a14.789,14.789,0,0,1-2.17548-.44315,10.82033,10.82033,0,0,1-1.93636-.78884,5.83071,5.83071,0,0,1-1.62576-1.1982,5.46948,5.46948,0,0,1-1.05135-1.72323,6.29486,6.29486,0,0,1-.40936-2.33143V242.5774a6.49087,6.49087,0,0,1,.38467-2.28984,5.40214,5.40214,0,0,1,1.002-1.71543,5.85983,5.85983,0,0,1,1.55169-1.2073,9.39955,9.39955,0,0,1,1.87918-.79534,15.32878,15.32878,0,0,1,2.15989-.45225q1.21445-.17154,2.208-.22093.99222-.05068,2.19108-.04938,1.28073,0,2.26515.04029.98637.04289,2.22486.20533a14.24,14.24,0,0,1,2.15079.43536,9.42428,9.42428,0,0,1,1.83889.77974,5.2703,5.2703,0,0,1,1.5101,1.1982,5.53081,5.53081,0,0,1,.95259,1.72453,6.91081,6.91081,0,0,1,.36908,2.33143v4.07155h-9.91572Z" transform="translate(-61.5 -187.38574)"/><path d="M258.8977,263.34584q-1.31387,0-2.29894-.04159-.98442-.04094-2.22357-.19624a12.844,12.844,0,0,1-2.143-.43536,9.92823,9.92823,0,0,1-1.822-.77974,5.17368,5.17368,0,0,1-1.5023-1.19041,5.37765,5.37765,0,0,1-.94349-1.73233,7.09365,7.09365,0,0,1-.36128-2.33923V242.5774a6.58174,6.58174,0,0,1,.37688-2.28984,5.3747,5.3747,0,0,1,.98507-1.71543,5.61679,5.61679,0,0,1,1.53479-1.1982,9.92441,9.92441,0,0,1,1.86358-.79664,13.60765,13.60765,0,0,1,2.143-.451q1.20665-.16375,2.19887-.21443.99417-.04873,2.19238-.04938,1.117,0,2.052.04159.93569.04094,2.15079.20533a14.7586,14.7586,0,0,1,2.16638.44315,10.65979,10.65979,0,0,1,1.92986.78754,6.03064,6.03064,0,0,1,1.62446,1.1995,5.33918,5.33918,0,0,1,1.05915,1.72323,6.21656,6.21656,0,0,1,.41066,2.31454V256.631a6.636,6.636,0,0,1-.386,2.33143,5.49435,5.49435,0,0,1-.99287,1.72323,5.40492,5.40492,0,0,1-1.55948,1.19041,10.73853,10.73853,0,0,1-1.87138.77974,13.18341,13.18341,0,0,1-2.16768.43536q-1.24759.15595-2.208.20533Q260.14463,263.34519,258.8977,263.34584Zm-1.36325-4.49911h2.84086v-18.502h-2.84086Z" transform="translate(-61.5 -187.38574)"/><polygon points="235.204 59.592 232.625 75.336 225.615 75.336 223.234 59.592 223.006 59.592 222.086 75.319 214.517 75.319 215.897 49.134 226.897 49.134 228.981 64.303 229.194 64.303 231.28 49.134 242.295 49.134 243.674 75.319 236.352 75.319 235.434 59.592 235.204 59.592"/><path d="M311.09885,236.5201s13.96519.01559,14.61107.04938q.96883.04873,2.08581.20533a10.66524,10.66524,0,0,1,1.93636.43406,8.22827,8.22827,0,0,1,1.618.76415,4.5739,4.5739,0,0,1,1.297,1.14882,5.51624,5.51624,0,0,1,.81223,1.63356,7.10877,7.10877,0,0,1,.3119,2.18328V249.686a8.01945,8.01945,0,0,1-.18844,1.79861,6.10963,6.10963,0,0,1-.50943,1.42823,4.07824,4.07824,0,0,1-.83692,1.09944,6.41289,6.41289,0,0,1-1.05915.81223,6.18468,6.18468,0,0,1-1.297.57441,11.69794,11.69794,0,0,1-1.436.37817,15.03663,15.03663,0,0,1-1.59327.20533q-.91035.07408-1.64136.09877-.731.02339-1.69854.02469h-2.49648v6.59922h-9.91572Zm9.90013,15.87556h2.83956V240.34473H320.999Z" transform="translate(-61.5 -187.38574)"/><path d="M349.38031,258.86362h2.83956V236.53569h9.93262V256.631a6.511,6.511,0,0,1-.386,2.30674,5.486,5.486,0,0,1-.99287,1.71543,5.55075,5.55075,0,0,1-1.55169,1.1982,9.94622,9.94622,0,0,1-1.87918.78754,14.22148,14.22148,0,0,1-2.15859.44445q-1.2242.16375-2.208.21313-.98637.04873-2.20017.04938-1.13258,0-2.06892-.04159-.93569-.04094-2.15079-.20533a14.50234,14.50234,0,0,1-2.15859-.44315,10.29308,10.29308,0,0,1-1.90387-.78754,5.85543,5.85543,0,0,1-1.59327-1.1982,5.43919,5.43919,0,0,1-1.03446-1.73233,6.42057,6.42057,0,0,1-.40157-2.32363v-20.094h9.91572Z" transform="translate(-61.5 -187.38574)"/><polygon points="327.016 49.134 327.016 53.55 321.17 53.55 321.17 75.319 311.254 75.319 311.254 53.55 305.46 53.55 305.46 49.134 327.016 49.134"/><polygon points="347.453 49.134 347.453 53.222 341.853 53.222 341.853 59.543 347.073 59.543 347.073 63.647 341.853 63.647 341.853 71.198 347.453 71.198 347.453 75.319 331.937 75.319 331.937 49.134 347.453 49.134"/><path d="M431.326,249.70294l.01559.09877a7.51069,7.51069,0,0,1,4.72,1.89607,5.36109,5.36109,0,0,1,1.43733,3.83243v7.17493h-9.94951V252.05h-2.84086v10.65518H414.7929v-26.185h14.98925a13.67506,13.67506,0,0,1,3.17615.31969,6.16966,6.16966,0,0,1,2.31583,1.076,4.44845,4.44845,0,0,1,1.47631,2.05982,9.2418,9.2418,0,0,1,.486,3.193,12.43211,12.43211,0,0,1-.14815,2.04422,6.30679,6.30679,0,0,1-.53542,1.68294,3.98306,3.98306,0,0,1-1.04226,1.35415,5.56145,5.56145,0,0,1-1.70764.92789A10.62562,10.62562,0,0,1,431.326,249.70294Zm-6.61741-1.46072h2.84086V240.411h-2.84086Z" transform="translate(-61.5 -187.38574)"/><path d="M231.696,286.82053l.06413.04361a.664.664,0,0,0,.05387.2578.55359.55359,0,0,0,.17187.22445,2.15446,2.15446,0,0,0,.236.17187,1.62572,1.62572,0,0,0,.32193.15135c.136.05.2501.08978.34373.118.09235.02822.22189.06028.38606.09619.16545.03591.28986.06156.3758.07567s.21547.03591.38734.06413.286.05.34373.06413a50.79643,50.79643,0,0,1,6.93623,1.58913q4.74621,1.63338,6.29237,5.15472a10.91872,10.91872,0,0,1,.85933,4.50958,19.58384,19.58384,0,0,1-.80546,6.12179,7.82842,7.82842,0,0,1-2.64085,3.82211,10.89947,10.89947,0,0,1-4.46725,1.97647,32.87557,32.87557,0,0,1-6.64765.55793q-1.46023,0-2.62033-.05387-1.15818-.05387-2.65111-.24626a16.67429,16.67429,0,0,1-2.63187-.5374,13.34726,13.34726,0,0,1-2.33046-.96707,7.499,7.499,0,0,1-1.997-1.47113,7.69089,7.69089,0,0,1-1.38519-2.115,8.81818,8.81818,0,0,1-.72979-2.85632q-.1289-1.46023-.12954-3.07051h12.30643v5.433H235.454V300.566a1.24255,1.24255,0,0,0-.21419-.71953,1.86082,1.86082,0,0,0-.68747-.55793,7.71346,7.71346,0,0,0-.7516-.35528c-.18726-.07054-.481-.17187-.88114-.30013q-.708-.23664-1.84693-.56947t-1.9226-.56947q-.783-.23471-1.84693-.60153-1.062-.36361-1.81486-.69773-.75031-.33283-1.643-.83753a8.64532,8.64532,0,0,1-1.50319-1.05172,12.6209,12.6209,0,0,1-1.23385-1.289,6.38448,6.38448,0,0,1-.98887-1.58913,10.0154,10.0154,0,0,1-.59-1.94312,11.74453,11.74453,0,0,1-.22574-2.36253,16.2503,16.2503,0,0,1,.36554-3.5874,10.41932,10.41932,0,0,1,1.0094-2.77039,7.476,7.476,0,0,1,1.643-2.02905,9.35712,9.35712,0,0,1,2.12525-1.407,12.43851,12.43851,0,0,1,2.59852-.86959,22.07091,22.07091,0,0,1,2.94226-.46173q1.47177-.1289,3.27573-.12954,1.88925,0,3.36166.09748a25.91941,25.91941,0,0,1,2.94226.36425,11.92074,11.92074,0,0,1,2.54465.73107,9.35564,9.35564,0,0,1,2.01879,1.19152,5.87017,5.87017,0,0,1,1.525,1.75073,9.451,9.451,0,0,1,.92346,2.43692,13.66668,13.66668,0,0,1,.34373,3.20006h-11.5125v-3.82211H231.696Z" transform="translate(-61.5 -187.38574)"/><path d="M272.11036,281.85948h-3.71566v24.11777h3.71566v-8.18162h12.97209v5.26117a8.71566,8.71566,0,0,1-.4938,3.01793,7.1353,7.1353,0,0,1-1.27874,2.24453,7.23263,7.23263,0,0,1-1.98673,1.56732,12.35325,12.35325,0,0,1-2.41511,1.0312,18.50585,18.50585,0,0,1-2.80374.57973q-1.58913.21355-2.86658.2796-1.27746.06349-2.88839.06413-1.48139,0-2.70626-.05387-1.22359-.05387-2.82426-.26806a19.51378,19.51378,0,0,1-2.84606-.57973,14.29569,14.29569,0,0,1-2.53311-1.0312,7.65342,7.65342,0,0,1-2.12653-1.5686,7.11835,7.11835,0,0,1-1.37493-2.25479,8.2117,8.2117,0,0,1-.53612-3.05V284.65168a8.47276,8.47276,0,0,1,.50406-2.99612,7.07681,7.07681,0,0,1,1.30952-2.24453,7.63582,7.63582,0,0,1,2.03034-1.57758,12.26811,12.26811,0,0,1,2.45872-1.04274,19.97814,19.97814,0,0,1,2.82426-.59q1.58913-.22509,2.88839-.28986,1.30054-.06541,2.86787-.06413,1.67378,0,2.96278.05387t2.91019.26806a18.44412,18.44412,0,0,1,2.814.56947,12.30032,12.30032,0,0,1,2.40485,1.01966,6.88682,6.88682,0,0,1,1.97647,1.56732,7.21567,7.21567,0,0,1,1.24539,2.25607,9.02965,9.02965,0,0,1,.48354,3.04871v5.32659H272.11036Z" transform="translate(-61.5 -187.38574)"/><rect x="231.18178" y="89.34083" width="12.97081" height="34.25534"/><polygon points="272.798 89.341 272.798 94.689 265.474 94.689 265.474 102.957 272.304 102.957 272.304 108.327 265.474 108.327 265.474 118.205 272.798 118.205 272.798 123.596 252.504 123.596 252.504 89.341 272.798 89.341"/><polygon points="298.759 123.596 290.06 108.327 290.06 123.596 280.44 123.596 280.44 89.341 291.543 89.341 300.798 105.685 300.798 89.341 310.334 89.341 310.334 123.596 298.759 123.596"/><path d="M396.63677,281.85948h-3.71566v24.11777h3.71566v-8.18162h12.96952v5.26117a8.7161,8.7161,0,0,1-.49251,3.01793,7.1086,7.1086,0,0,1-1.27746,2.24453,7.26458,7.26458,0,0,1-1.98545,1.56732,12.33049,12.33049,0,0,1-2.41639,1.0312,18.50585,18.50585,0,0,1-2.80374.57973q-1.58913.21355-2.86658.2796-1.27746.06349-2.88839.06413-1.48139,0-2.70626-.05387-1.22359-.05387-2.82426-.26806a19.51378,19.51378,0,0,1-2.84606-.57973,14.29569,14.29569,0,0,1-2.53311-1.0312,7.65342,7.65342,0,0,1-2.12653-1.5686,7.11835,7.11835,0,0,1-1.37493-2.25479,8.2117,8.2117,0,0,1-.53612-3.05V284.65168a8.47276,8.47276,0,0,1,.50406-2.99612,7.07681,7.07681,0,0,1,1.30952-2.24453,7.63582,7.63582,0,0,1,2.03034-1.57758,12.26811,12.26811,0,0,1,2.45872-1.04274,19.97813,19.97813,0,0,1,2.82426-.59q1.58913-.22509,2.88839-.28986,1.30054-.06541,2.86787-.06413,1.67378,0,2.96278.05387t2.91019.26806a18.44412,18.44412,0,0,1,2.814.56947,12.22514,12.22514,0,0,1,2.40357,1.01966,6.84552,6.84552,0,0,1,1.97518,1.56732,7.24321,7.24321,0,0,1,1.24667,2.25607,8.99855,8.99855,0,0,1,.48225,3.04871v5.32659H396.63677Z" transform="translate(-61.5 -187.38574)"/><polygon points="376 89.341 376 94.689 368.676 94.689 368.676 102.957 375.507 102.957 375.507 108.327 368.676 108.327 368.676 118.205 376 118.205 376 123.596 355.704 123.596 355.704 89.341 376 89.341"/><path d="M196.83447,312.84082H62.5a.99974.99974,0,0,1-1-1V188.38574a1,1,0,0,1,1-1H81.90088a1,1,0,0,1,1,1V293.20313h23.19873V286.2207a18.83935,18.83935,0,0,1-7.72314-5.02051c-3.95605-4.334-5.9624-10.59473-5.9624-18.60742V212.57129c0-8.0083,2.00586-14.26855,5.9624-18.60742,3.98437-4.36523,9.897-6.57812,17.57471-6.57812,7.67432,0,13.58643,2.21289,17.57227,6.57764,3.9585,4.34326,5.96533,10.604,5.96533,18.60791V221.916a1,1,0,0,1-1,1h-14.292a1,1,0,0,1-1-1V211.61084c0-3.18945-.61816-5.42578-1.83789-6.647a7.71272,7.71272,0,0,0-9.99219.00391c-1.21924,1.22314-1.83789,3.46387-1.83789,6.65967v52.05029c0,3.19141.61426,5.4043,1.82568,6.57715a7.92781,7.92781,0,0,0,10.01758.00293c1.21045-1.17285,1.82471-3.38184,1.82471-6.56348V247.84717a1,1,0,0,1,1-1h39.41895a1,1,0,0,1,1,1v16.43311c0,3.24219.62158,5.49414,1.84668,6.69336a7.98285,7.98285,0,0,0,10.11182.00879c1.22363-1.18652,1.84473-3.4209,1.84473-6.63965a16.35638,16.35638,0,0,0-2.083-8.31934,35.90356,35.90356,0,0,0-5.395-7.019c-2.17187-2.22314-4.55762-4.49707-7.09131-6.7583A69.23681,69.23681,0,0,1,156.605,234.708a39.04747,39.04747,0,0,1-5.69238-9.40234,31.4526,31.4526,0,0,1-2.2998-12.481c0-8.084,1.97461-14.4043,5.86865-18.78516,3.92334-4.415,9.84131-6.65381,17.58984-6.65381,7.749,0,13.66748,2.23584,17.59131,6.64551,3.89307,4.375,5.86719,10.68555,5.86719,18.75586v3.7417a1,1,0,0,1-1,1h-14.4165a1,1,0,0,1-1-1v-4.71436c0-3.23047-.58643-5.49609-1.74268-6.7334a7.42407,7.42407,0,0,0-9.76758.001c-1.15479,1.23486-1.74023,3.5-1.74023,6.73242a16.2614,16.2614,0,0,0,2.082,8.30127,35.78118,35.78118,0,0,0,5.39648,7.01221c2.21484,2.2627,4.6001,4.53223,7.08936,6.74463a69.78149,69.78149,0,0,1,7.24512,7.52539,39.05162,39.05162,0,0,1,5.69287,9.39014,31.39154,31.39154,0,0,1,2.30029,12.457c0,8.0752-2.02344,14.38965-6.01465,18.76563a18.85075,18.85075,0,0,1-6.90869,4.75781v6.43457h14.08887a.99974.99974,0,0,1,1,1v17.6377A.99974.99974,0,0,1,196.83447,312.84082Zm-133.33447-2H195.83447v-15.6377H181.74561a.99974.99974,0,0,1-1-1V286.084a1.00049,1.00049,0,0,1,.65381-.93848,17.02424,17.02424,0,0,0,6.77734-4.48242c3.64453-3.99609,5.49219-9.85645,5.49219-17.418a29.42835,29.42835,0,0,0-2.13623-11.66406,37.05009,37.05009,0,0,0-5.39746-8.90771,67.76485,67.76485,0,0,0-7.03467-7.30713c-2.52246-2.24219-4.94141-4.54346-7.189-6.83887a37.81122,37.81122,0,0,1-5.6958-7.40576,18.23656,18.23656,0,0,1-2.353-9.30713c0-3.80908.74561-6.458,2.27979-8.09912a9.39374,9.39374,0,0,1,12.688-.001c1.53662,1.644,2.28271,4.293,2.28271,8.1001v3.71436h12.4165v-2.7417c0-7.56543-1.80371-13.42871-5.36133-17.42676-3.52783-3.96436-8.94385-5.97461-16.09717-5.97461-7.15234,0-12.56738,2.0127-16.09473,5.98242-3.55908,4.00391-5.36377,9.877-5.36377,17.45654a29.49427,29.49427,0,0,0,2.13574,11.68848,37.07557,37.07557,0,0,0,5.39844,8.92139,67.21628,67.21628,0,0,0,7.03467,7.31934c2.56738,2.292,4.98633,4.59717,7.18945,6.85254a37.887,37.887,0,0,1,5.69434,7.41211,18.33153,18.33153,0,0,1,2.35352,9.32422c0,3.834-.80225,6.47559-2.45312,8.07617a9.958,9.958,0,0,1-12.90088-.01465c-1.64844-1.61328-2.44922-4.27051-2.44922-8.124V248.84717H125.19678v14.84717c0,3.7959-.79639,6.41309-2.43457,8.001a9.90211,9.90211,0,0,1-12.79883-.00391c-1.63818-1.585-2.43457-4.207-2.43457-8.01367V211.62744c0-3.79687.79248-6.4375,2.42236-8.07227a9.691,9.691,0,0,1,12.82129-.00586c1.63184,1.63379,2.42432,4.27051,2.42432,8.06152V220.916h12.292v-8.34473c0-7.49023-1.83105-13.29736-5.44287-17.25977-3.59033-3.93164-9.00586-5.92578-16.09473-5.92578-7.09229,0-12.5083,1.99365-16.09717,5.92627-3.60986,3.9585-5.43994,9.76563-5.43994,17.25928v50.02148c0,7.498,1.83008,13.30469,5.43994,17.25977a17.1072,17.1072,0,0,0,7.55225,4.7002.9991.9991,0,0,1,.69385.95215v8.69824a1.00015,1.00015,0,0,1-1.00049,1H81.90088a.99974.99974,0,0,1-1-1V189.38574H63.5Zm102.48535-15.6377H122.85986a.99974.99974,0,0,1-1-1V286.1582a1,1,0,0,1,.77344-1.08594,17.79007,17.79007,0,0,0,9.4165-5.16113c3.60889-3.917,5.439-9.69727,5.439-17.18066v-2.05176a.99974.99974,0,0,1,1-1h10.7085a.99974.99974,0,0,1,1,1v2.56641c0,7.56348,1.84766,13.42383,5.49219,17.418a18.284,18.284,0,0,0,10.479,5.4668,1.00094,1.00094,0,0,1,.81689.9834v7.08984A.99974.99974,0,0,1,165.98535,295.20313Zm-42.12549-2h41.12549v-5.27148a19.93271,19.93271,0,0,1-10.77344-5.9209c-3.99121-4.374-6.01465-10.6875-6.01465-18.76562v-1.56641h-8.7085v1.05176c0,8.002-2.00781,14.23828-5.96826,18.53613a19.46379,19.46379,0,0,1-9.66064,5.56641Z" transform="translate(-61.5 -187.38574)"/></svg>