<svg id="Слой_1" data-name="Слой 1" xmlns="http://www.w3.org/2000/svg" viewBox="0 0 375 123.68249"><title>logo LCS black</title><polygon points="156.804 29.776 156.804 0.746 167.796 0.746 167.796 25.39 174.003 25.39 174.003 29.776 156.804 29.776"/><polygon points="197.24 0.746 197.24 5.278 191.034 5.278 191.034 12.285 196.822 12.285 196.822 16.836 191.034 16.836 191.034 25.207 197.24 25.207 197.24 29.776 180.041 29.776 180.041 0.746 197.24 0.746"/><path d="M276.69958,211.27387l-1.00121,6.66086H265.03266l5.31463-29.03h16.50764l5.40577,29.03H281.57675l-.98168-6.66086Zm2.07534-16.68991h-.34632l-1.40092,12.86734H280.267Z" transform="translate(-62.5 -188.15876)"/><path d="M316.48118,203.52066l.01823.10806q3.6403.41988,5.2326,2.10268a5.94056,5.94056,0,0,1,1.59231,4.24962v7.95372h-11.029V206.12329H309.1459v11.81144H298.15339v-29.03h16.617a15.12645,15.12645,0,0,1,3.52182.35544,6.85042,6.85042,0,0,1,2.56618,1.1926,4.94355,4.94355,0,0,1,1.63787,2.28365,10.22656,10.22656,0,0,1,.53641,3.54,13.92944,13.92944,0,0,1-.16275,2.26542,6.95878,6.95878,0,0,1-.59239,1.86572,4.43064,4.43064,0,0,1-1.15484,1.50117,6.16265,6.16265,0,0,1-1.89306,1.02855A11.70715,11.70715,0,0,1,316.48118,203.52066Zm-7.33528-1.62095h3.14946V193.2182H309.1459Z" transform="translate(-62.5 -188.15876)"/><polygon points="282.697 29.776 275.327 16.836 275.327 29.776 267.173 29.776 267.173 0.746 276.582 0.746 284.426 14.596 284.426 0.746 292.508 0.746 292.508 29.776 282.697 29.776"/><rect x="299.58257" y="0.74603" width="10.99251" height="29.02995"/><polygon points="333.176 29.776 325.805 16.836 325.805 29.776 317.651 29.776 317.651 0.746 327.061 0.746 334.905 14.596 334.905 0.746 342.986 0.746 342.986 29.776 333.176 29.776"/><path d="M427.289,215.67843q-1.82015,2.96653-6.39005,2.96588a11.948,11.948,0,0,1-3.30179-.43616,8.77405,8.77405,0,0,1-2.7133-1.29285,5.78694,5.78694,0,0,1-1.86442-2.27454,7.44825,7.44825,0,0,1-.67442-3.23929V195.58517a7.37143,7.37143,0,0,1,.41923-2.55706,5.82426,5.82426,0,0,1,1.10146-1.90217,6.22185,6.22185,0,0,1,1.7186-1.32019,11.2379,11.2379,0,0,1,2.07534-.86451,15.84722,15.84722,0,0,1,2.393-.49084c.90356-.12108,1.7186-.2005,2.43989-.237s1.53632-.05468,2.4477-.05468q1.164,0,2.22116.0638,1.05459.06445,2.36437.25519a17.09618,17.09618,0,0,1,2.3852.50907,11.65044,11.65044,0,0,1,2.14825.89185,7.19232,7.19232,0,0,1,1.80192,1.32931,5.84338,5.84338,0,0,1,1.18219,1.88395,6.68718,6.68718,0,0,1,.45569,2.51149v4.51392H426.487V193.2182H423.3388v20.43958H426.487v-5.51513h-1.54674v-4.20405H437.499v13.99614H428.6352Z" transform="translate(-62.5 -188.15876)"/><path d="M232.07586,240.4435H229.235v18.437h2.84086v-6.25613h9.91572v4.02347a6.66057,6.66057,0,0,1-.37688,2.30544,5.47908,5.47908,0,0,1-.97728,1.71673,5.56023,5.56023,0,0,1-1.5192,1.1982,9.37848,9.37848,0,0,1-1.84669.78754,13.98449,13.98449,0,0,1-2.14169.44315q-1.2164.16375-2.19238.21313-.97663.05068-2.208.04938-1.13258,0-2.06892-.04029-.93569-.04094-2.15859-.20533a14.789,14.789,0,0,1-2.17548-.44315,10.82033,10.82033,0,0,1-1.93636-.78884,5.83071,5.83071,0,0,1-1.62576-1.1982,5.46948,5.46948,0,0,1-1.05135-1.72323,6.29486,6.29486,0,0,1-.40936-2.33143V242.5774a6.49087,6.49087,0,0,1,.38467-2.28984,5.40214,5.40214,0,0,1,1.002-1.71543,5.85983,5.85983,0,0,1,1.55169-1.2073,9.39955,9.39955,0,0,1,1.87918-.79534,15.32878,15.32878,0,0,1,2.15989-.45225q1.21445-.17154,2.208-.22093.99222-.05068,2.19108-.04938,1.28073,0,2.26515.04029.98637.04289,2.22486.20533a14.24,14.24,0,0,1,2.15079.43536,9.42428,9.42428,0,0,1,1.83889.77974,5.2703,5.2703,0,0,1,1.5101,1.1982,5.53081,5.53081,0,0,1,.95259,1.72453,6.91081,6.91081,0,0,1,.36908,2.33143v4.07155h-9.91572Z" transform="translate(-62.5 -188.15876)"/><path d="M258.8977,263.34584q-1.31387,0-2.29894-.04159-.98442-.04094-2.22357-.19624a12.844,12.844,0,0,1-2.143-.43536,9.92823,9.92823,0,0,1-1.822-.77974,5.17368,5.17368,0,0,1-1.5023-1.19041,5.37765,5.37765,0,0,1-.94349-1.73233,7.09365,7.09365,0,0,1-.36128-2.33923V242.5774a6.58174,6.58174,0,0,1,.37688-2.28984,5.3747,5.3747,0,0,1,.98507-1.71543,5.61679,5.61679,0,0,1,1.53479-1.1982,9.92441,9.92441,0,0,1,1.86358-.79664,13.60765,13.60765,0,0,1,2.143-.451q1.20665-.16375,2.19887-.21443.99417-.04873,2.19238-.04938,1.117,0,2.052.04159.93569.04094,2.15079.20533a14.7586,14.7586,0,0,1,2.16638.44315,10.65979,10.65979,0,0,1,1.92986.78754,6.03064,6.03064,0,0,1,1.62446,1.1995,5.33918,5.33918,0,0,1,1.05915,1.72323,6.21656,6.21656,0,0,1,.41066,2.31454V256.631a6.636,6.636,0,0,1-.386,2.33143,5.49435,5.49435,0,0,1-.99287,1.72323,5.40492,5.40492,0,0,1-1.55948,1.19041,10.73853,10.73853,0,0,1-1.87138.77974,13.18341,13.18341,0,0,1-2.16768.43536q-1.24759.15595-2.208.20533Q260.14463,263.34519,258.8977,263.34584Zm-1.36325-4.49911h2.84086v-18.502h-2.84086Z" transform="translate(-62.5 -188.15876)"/><polygon points="234.204 58.819 231.625 74.563 224.615 74.563 222.234 58.819 222.006 58.819 221.086 74.546 213.517 74.546 214.897 48.361 225.897 48.361 227.981 63.53 228.194 63.53 230.28 48.361 241.295 48.361 242.674 74.546 235.352 74.546 234.434 58.819 234.204 58.819"/><path d="M311.09885,236.5201s13.96519.01559,14.61107.04938q.96883.04873,2.08581.20533a10.66524,10.66524,0,0,1,1.93636.43406,8.22827,8.22827,0,0,1,1.618.76415,4.5739,4.5739,0,0,1,1.297,1.14882,5.51624,5.51624,0,0,1,.81223,1.63356,7.10877,7.10877,0,0,1,.3119,2.18328V249.686a8.01945,8.01945,0,0,1-.18844,1.79861,6.10963,6.10963,0,0,1-.50943,1.42823,4.07824,4.07824,0,0,1-.83692,1.09944,6.41289,6.41289,0,0,1-1.05915.81223,6.18468,6.18468,0,0,1-1.297.57441,11.69794,11.69794,0,0,1-1.436.37817,15.03663,15.03663,0,0,1-1.59327.20533q-.91035.07408-1.64136.09877-.731.02339-1.69854.02469h-2.49648v6.59922h-9.91572Zm9.90013,15.87556h2.83956V240.34473H320.999Z" transform="translate(-62.5 -188.15876)"/><path d="M349.38031,258.86362h2.83956V236.53569h9.93262V256.631a6.511,6.511,0,0,1-.386,2.30674,5.486,5.486,0,0,1-.99287,1.71543,5.55075,5.55075,0,0,1-1.55169,1.1982,9.94622,9.94622,0,0,1-1.87918.78754,14.22148,14.22148,0,0,1-2.15859.44445q-1.2242.16375-2.208.21313-.98637.04873-2.20017.04938-1.13258,0-2.06892-.04159-.93569-.04094-2.15079-.20533a14.50234,14.50234,0,0,1-2.15859-.44315,10.29308,10.29308,0,0,1-1.90387-.78754,5.85543,5.85543,0,0,1-1.59327-1.1982,5.43919,5.43919,0,0,1-1.03446-1.73233,6.42057,6.42057,0,0,1-.40157-2.32363v-20.094h9.91572Z" transform="translate(-62.5 -188.15876)"/><polygon points="326.016 48.361 326.016 52.777 320.17 52.777 320.17 74.546 310.254 74.546 310.254 52.777 304.46 52.777 304.46 48.361 326.016 48.361"/><polygon points="346.453 48.361 346.453 52.448 340.853 52.448 340.853 58.77 346.073 58.77 346.073 62.874 340.853 62.874 340.853 70.425 346.453 70.425 346.453 74.546 330.937 74.546 330.937 48.361 346.453 48.361"/><path d="M431.326,249.70294l.01559.09877a7.51069,7.51069,0,0,1,4.72,1.89607,5.36109,5.36109,0,0,1,1.43733,3.83243v7.17493h-9.94951V252.05h-2.84086v10.65518H414.7929v-26.185h14.98925a13.67506,13.67506,0,0,1,3.17615.31969,6.16966,6.16966,0,0,1,2.31583,1.076,4.44845,4.44845,0,0,1,1.47631,2.05982,9.2418,9.2418,0,0,1,.486,3.193,12.43211,12.43211,0,0,1-.14815,2.04422,6.30679,6.30679,0,0,1-.53542,1.68294,3.98306,3.98306,0,0,1-1.04226,1.35415,5.56145,5.56145,0,0,1-1.70764.92789A10.62562,10.62562,0,0,1,431.326,249.70294Zm-6.61741-1.46072h2.84086V240.411h-2.84086Z" transform="translate(-62.5 -188.15876)"/><path d="M231.696,286.82053l.06413.04361a.664.664,0,0,0,.05387.2578.55359.55359,0,0,0,.17187.22445,2.15446,2.15446,0,0,0,.236.17187,1.62572,1.62572,0,0,0,.32193.15135c.136.05.2501.08978.34373.118.09235.02822.22189.06028.38606.09619.16545.03591.28986.06156.3758.07567s.21547.03591.38734.06413.286.05.34373.06413a50.79643,50.79643,0,0,1,6.93623,1.58913q4.74621,1.63338,6.29237,5.15472a10.91872,10.91872,0,0,1,.85933,4.50958,19.58384,19.58384,0,0,1-.80546,6.12179,7.82842,7.82842,0,0,1-2.64085,3.82211,10.89947,10.89947,0,0,1-4.46725,1.97647,32.87557,32.87557,0,0,1-6.64765.55793q-1.46023,0-2.62033-.05387-1.15818-.05387-2.65111-.24626a16.67429,16.67429,0,0,1-2.63187-.5374,13.34726,13.34726,0,0,1-2.33046-.96707,7.499,7.499,0,0,1-1.997-1.47113,7.69089,7.69089,0,0,1-1.38519-2.115,8.81818,8.81818,0,0,1-.72979-2.85632q-.1289-1.46023-.12954-3.07051h12.30643v5.433H235.454V300.566a1.24255,1.24255,0,0,0-.21419-.71953,1.86082,1.86082,0,0,0-.68747-.55793,7.71346,7.71346,0,0,0-.7516-.35528c-.18726-.07054-.481-.17187-.88114-.30013q-.708-.23664-1.84693-.56947t-1.9226-.56947q-.783-.23471-1.84693-.60153-1.062-.36361-1.81486-.69773-.75031-.33283-1.643-.83753a8.64532,8.64532,0,0,1-1.50319-1.05172,12.6209,12.6209,0,0,1-1.23385-1.289,6.38448,6.38448,0,0,1-.98887-1.58913,10.0154,10.0154,0,0,1-.59-1.94312,11.74453,11.74453,0,0,1-.22574-2.36253,16.2503,16.2503,0,0,1,.36554-3.5874,10.41932,10.41932,0,0,1,1.0094-2.77039,7.476,7.476,0,0,1,1.643-2.02905,9.35712,9.35712,0,0,1,2.12525-1.407,12.43851,12.43851,0,0,1,2.59852-.86959,22.07091,22.07091,0,0,1,2.94226-.46173q1.47177-.1289,3.27573-.12954,1.88925,0,3.36166.09748a25.91941,25.91941,0,0,1,2.94226.36425,11.92074,11.92074,0,0,1,2.54465.73107,9.35564,9.35564,0,0,1,2.01879,1.19152,5.87017,5.87017,0,0,1,1.525,1.75073,9.451,9.451,0,0,1,.92346,2.43692,13.66668,13.66668,0,0,1,.34373,3.20006h-11.5125v-3.82211H231.696Z" transform="translate(-62.5 -188.15876)"/><path d="M272.11036,281.85948h-3.71566v24.11777h3.71566v-8.18162h12.97209v5.26117a8.71566,8.71566,0,0,1-.4938,3.01793,7.1353,7.1353,0,0,1-1.27874,2.24453,7.23263,7.23263,0,0,1-1.98673,1.56732,12.35325,12.35325,0,0,1-2.41511,1.0312,18.50585,18.50585,0,0,1-2.80374.57973q-1.58913.21355-2.86658.2796-1.27746.06349-2.88839.06413-1.48139,0-2.70626-.05387-1.22359-.05387-2.82426-.26806a19.51378,19.51378,0,0,1-2.84606-.57973,14.29569,14.29569,0,0,1-2.53311-1.0312,7.65342,7.65342,0,0,1-2.12653-1.5686,7.11835,7.11835,0,0,1-1.37493-2.25479,8.2117,8.2117,0,0,1-.53612-3.05V284.65168a8.47276,8.47276,0,0,1,.50406-2.99612,7.07681,7.07681,0,0,1,1.30952-2.24453,7.63582,7.63582,0,0,1,2.03034-1.57758,12.26811,12.26811,0,0,1,2.45872-1.04274,19.97814,19.97814,0,0,1,2.82426-.59q1.58913-.22509,2.88839-.28986,1.30054-.06541,2.86787-.06413,1.67378,0,2.96278.05387t2.91019.26806a18.44412,18.44412,0,0,1,2.814.56947,12.30032,12.30032,0,0,1,2.40485,1.01966,6.88682,6.88682,0,0,1,1.97647,1.56732,7.21567,7.21567,0,0,1,1.24539,2.25607,9.02965,9.02965,0,0,1,.48354,3.04871v5.32659H272.11036Z" transform="translate(-62.5 -188.15876)"/><rect x="230.18178" y="88.56781" width="12.97081" height="34.25534"/><polygon points="271.798 88.568 271.798 93.916 264.474 93.916 264.474 102.184 271.304 102.184 271.304 107.554 264.474 107.554 264.474 117.432 271.798 117.432 271.798 122.823 251.504 122.823 251.504 88.568 271.798 88.568"/><polygon points="297.759 122.823 289.06 107.554 289.06 122.823 279.44 122.823 279.44 88.568 290.543 88.568 299.798 104.912 299.798 88.568 309.334 88.568 309.334 122.823 297.759 122.823"/><path d="M396.63677,281.85948h-3.71566v24.11777h3.71566v-8.18162h12.96952v5.26117a8.7161,8.7161,0,0,1-.49251,3.01793,7.1086,7.1086,0,0,1-1.27746,2.24453,7.26458,7.26458,0,0,1-1.98545,1.56732,12.33049,12.33049,0,0,1-2.41639,1.0312,18.50585,18.50585,0,0,1-2.80374.57973q-1.58913.21355-2.86658.2796-1.27746.06349-2.88839.06413-1.48139,0-2.70626-.05387-1.22359-.05387-2.82426-.26806a19.51378,19.51378,0,0,1-2.84606-.57973,14.29569,14.29569,0,0,1-2.53311-1.0312,7.65342,7.65342,0,0,1-2.12653-1.5686,7.11835,7.11835,0,0,1-1.37493-2.25479,8.2117,8.2117,0,0,1-.53612-3.05V284.65168a8.47276,8.47276,0,0,1,.50406-2.99612,7.07681,7.07681,0,0,1,1.30952-2.24453,7.63582,7.63582,0,0,1,2.03034-1.57758,12.26811,12.26811,0,0,1,2.45872-1.04274,19.97813,19.97813,0,0,1,2.82426-.59q1.58913-.22509,2.88839-.28986,1.30054-.06541,2.86787-.06413,1.67378,0,2.96278.05387t2.91019.26806a18.44412,18.44412,0,0,1,2.814.56947,12.22514,12.22514,0,0,1,2.40357,1.01966,6.84552,6.84552,0,0,1,1.97518,1.56732,7.24321,7.24321,0,0,1,1.24667,2.25607,8.99855,8.99855,0,0,1,.48225,3.04871v5.32659H396.63677Z" transform="translate(-62.5 -188.15876)"/><polygon points="375 88.568 375 93.916 367.676 93.916 367.676 102.184 374.507 102.184 374.507 107.554 367.676 107.554 367.676 117.432 375 117.432 375 122.823 354.704 122.823 354.704 88.568 375 88.568"/><path d="M181.74567,294.20294v-8.11865a17.92639,17.92639,0,0,0,7.17-4.7475q5.74905-6.304,5.75323-18.09137a30.26788,30.26788,0,0,0-2.21777-12.05951,37.86527,37.86527,0,0,0-5.54541-9.14966,68.35918,68.35918,0,0,0-7.13971-7.41608q-3.81628-3.3923-7.13965-6.7926a36.58867,36.58867,0,0,1-5.54559-7.20831,17.16782,17.16782,0,0,1-2.21777-8.80463q0-5.26273,2.00995-7.4162a8.40707,8.40707,0,0,1,11.22809,0q2.011,2.15131,2.01208,7.4162v4.714h14.41663v-3.74127q0-11.78522-5.61407-18.09137-5.61511-6.31036-16.84436-6.31036-11.22711,0-16.84216,6.31866-5.6153,6.31659-5.61627,18.12054a30.329,30.329,0,0,0,2.2179,12.08441,37.87879,37.87879,0,0,0,5.54547,9.16217A67.90247,67.90247,0,0,0,164.51587,241.5q3.81317,3.40448,7.13971,6.80505a36.71406,36.71406,0,0,1,5.54559,7.21661,17.261,17.261,0,0,1,2.21771,8.82117q0,5.27527-2.14929,7.358a8.9675,8.9675,0,0,1-11.50659-.01245q-2.14819-2.10141-2.14716-7.408V247.847H124.19678v15.84729q0,5.22556-2.13037,7.2832a8.91239,8.91239,0,0,1-11.407-.00421q-2.13235-2.06378-2.13037-7.29547V211.62756q0-5.22556,2.13037-7.36621a8.69957,8.69957,0,0,1,11.407-.00421q2.12924,2.13263,2.13037,7.35376v10.30524h14.29187v-9.34491q0-11.6792-5.70337-17.93347-5.70547-6.248-16.83392-6.25214-11.13354,0-16.83606,6.25214-5.70236,6.25433-5.70123,17.93347v50.02155q0,11.68542,5.70123,17.93347a18.00887,18.00887,0,0,0,7.98541,4.97845l-.00116-.00031v8.69855H81.90076V188.38562H62.5V311.84125H196.83453V294.20294Zm-15.76044,0H122.86v-8.15613l-.00653.00128a18.69155,18.69155,0,0,0,9.93182-5.45953q5.69934-6.18576,5.70337-17.85858v-2.05084h10.70862v2.56628q0,11.78522,5.75323,18.09137a19.17707,19.17707,0,0,0,11.03473,5.77618Z" transform="translate(-62.5 -188.15876)"/></svg>