<svg id="Слой_1" data-name="Слой 1" xmlns="http://www.w3.org/2000/svg" viewBox="0 0 174.29277 174.29277"><defs><style>.cls-1{fill:#67809f;}.cls-2{fill:#4e6078;}.cls-3{fill:#f96a0c;}.cls-4{fill:#fff;}</style></defs><title>button LCS color</title><rect class="cls-1" width="174.29277" height="174.29277" rx="20.24045" ry="20.24045"/><path class="cls-2" d="M307.07843,298.08948v-8.11859a17.92661,17.92661,0,0,0,7.17-4.7475q5.74887-6.304,5.75317-18.09131a30.26818,30.26818,0,0,0-2.21777-12.05957,37.86253,37.86253,0,0,0-5.54541-9.1496,68.3658,68.3658,0,0,0-7.13971-7.41614q-3.81628-3.39221-7.13971-6.7926a36.59511,36.59511,0,0,1-5.54559-7.20831,17.16772,17.16772,0,0,1-2.21771-8.80457q0-5.26291,2.00989-7.41632a8.40732,8.40732,0,0,1,11.22815,0q2.011,2.15149,2.01208,7.41632v4.714h14.41656v-3.74139q0-11.78522-5.614-18.09131-5.61511-6.31036-16.84442-6.31042-11.227,0-16.84222,6.31873-5.6152,6.31668-5.61615,18.12061a30.32732,30.32732,0,0,0,2.2179,12.08429,37.87572,37.87572,0,0,0,5.54535,9.16223,67.89728,67.89728,0,0,0,7.13971,7.42859q3.81317,3.40457,7.13971,6.80511a36.70743,36.70743,0,0,1,5.54553,7.21655,17.26105,17.26105,0,0,1,2.21777,8.82123q0,5.27518-2.14929,7.358a8.9675,8.9675,0,0,1-11.50659-.01245q-2.14819-2.10141-2.14722-7.4079V251.73358h-39.419V267.581q0,5.22537-2.13037,7.28308a8.91218,8.91218,0,0,1-11.407-.00409q-2.13235-2.06387-2.13037-7.29559V215.51416q0-5.22556,2.13037-7.36627a8.69939,8.69939,0,0,1,11.407-.00409q2.12924,2.13254,2.13037,7.3537v10.3053h14.29193v-9.345q0-11.67911-5.70343-17.93335-5.70557-6.24811-16.834-6.25226-11.13345,0-16.836,6.25226-5.70245,6.25424-5.70129,17.93335v50.02161q0,11.68552,5.70129,17.93341a18.00872,18.00872,0,0,0,7.98431,4.97827v8.69843H207.23346V192.27216h-19.4007V315.72778H322.16724V298.08948Zm-72.57764-8.13708c-.02466-.00562-.05048-.00989-.07513-.01556C234.45038,289.94238,234.476,289.9469,234.50079,289.95239Zm4.28387.62213c.81079.05585,1.64008.09045,2.49939.09045.78125,0,1.53113-.03571,2.27222-.08142-.73877.04834-1.491.08142-2.27222.08142C240.42474,290.665,239.59344,290.63275,238.78467,290.57452Zm-2.26624-.24664c.18866.027.38666.0434.57825.067C236.90576,290.37048,236.70642,290.35571,236.51843,290.32788Zm9.0152.06244c-.33759.04358-.67749.08447-1.02435.11749C244.85736,290.47626,245.19476,290.4325,245.53363,290.39032Zm45.7843,7.69916H248.19275v-8.15607l-.00159.00031a18.69028,18.69028,0,0,0,9.92688-5.45856q5.69925-6.18567,5.70343-17.85858V264.5658H274.53v2.56628q0,11.78522,5.75323,18.09131a19.17676,19.17676,0,0,0,11.03491,5.77625l-.00024-.00006Zm3.69733-6.63715c.7345.04492,1.4762.08154,2.24957.08154q1.39783,0,2.71033-.09821-1.31268.09805-2.71033.09821C296.49146,291.53387,295.74683,291.50061,295.01526,291.45233Zm-2.37079-.2373c.5188.07117,1.04175.1377,1.58252.18353Q293.4194,291.32568,292.64447,291.215Z" transform="translate(-162.85361 -162.85361)"/><path class="cls-3" d="M312.78385,251.0725a37.86418,37.86418,0,0,0-5.5454-9.1496,68.3639,68.3639,0,0,0-7.1397-7.4161q-3.81631-3.39225-7.1397-6.7926a36.59594,36.59594,0,0,1-5.5456-7.2083,17.1679,17.1679,0,0,1-2.2177-8.8046q0-5.2629,2.0099-7.4163a8.40729,8.40729,0,0,1,11.2281,0q2.011,2.15145,2.0121,7.4163v4.714h14.4166v-3.7414q0-11.7852-5.614-18.0913-5.6151-6.31035-16.8444-6.3104-11.227,0-16.8422,6.3187-5.61525,6.31665-5.6162,18.1206a30.32755,30.32755,0,0,0,2.2179,12.0843,37.87607,37.87607,0,0,0,5.5454,9.1622,67.89294,67.89294,0,0,0,7.1397,7.4286q3.81316,3.40455,7.1397,6.8051a36.70685,36.70685,0,0,1,5.5455,7.2166,17.26049,17.26049,0,0,1,2.2178,8.8212q0,5.2752-2.1493,7.358a8.96756,8.96756,0,0,1-11.5066-.0125q-2.14816-2.10135-2.1472-7.4079V247.7336h-39.419V263.581q0,5.2254-2.1304,7.2831a8.91214,8.91214,0,0,1-11.407-.0041q-2.1324-2.06385-2.1304-7.2956V211.5142q0-5.22555,2.1304-7.3663a8.69943,8.69943,0,0,1,11.407-.0041q2.12925,2.13255,2.1304,7.3537v10.3053h14.2919v-9.345q0-11.67915-5.7034-17.9334-5.70555-6.2481-16.834-6.2522-11.13345,0-16.836,6.2522-5.7024,6.25425-5.7013,17.9334v50.0216q0,11.68545,5.7013,17.9334,5.7024,6.2544,16.836,6.2522,11.13045,0,16.834-6.1898,5.69925-6.1857,5.7034-17.8586v-2.0508H269.53v2.5663q0,11.7852,5.7532,18.0913,5.75235,6.31035,16.9816,6.3105,11.2302,0,16.9836-6.3105,5.7489-6.30405,5.7532-18.0913A30.26767,30.26767,0,0,0,312.78385,251.0725Z" transform="translate(-162.85361 -162.85361)"/><path class="cls-4" d="M302.07845,294.0895v-8.1187a28.27871,28.27871,0,0,1-9.8136,1.5631,32.31714,32.31714,0,0,1-5.9469-.5343v7.0899h-43.1252v-8.1561a31.23949,31.23949,0,0,1-6.9087.7316,28.82085,28.82085,0,0,1-8.8517-1.274v8.6985h-25.1989V188.2722h-19.4007V311.7278H317.16725V294.0895Z" transform="translate(-162.85361 -162.85361)"/></svg>